***************************************************************

[IMG]http://www.hotimg.org/images/67363952943939111394.png[/IMG]

***************************************************************

[img]http://www.imagezon3.com/images/OXbEK.jpg[/img]

***************************************************************

FILM TITLE: Dream House (2011)

***************************************************************

Genre:  Drama | Mystery | Thriller    

Rated PG-13 for violence, terror, some sexuality and brief strong language

Release:  21 October 2011 (Poland) 

Director: Jim Sheridan

Writer: David Loucka (screenplay)

Stars:  Daniel Craig, Rachel Weisz and Naomi Watts

Country: USA

Language:  English

Plot:
Soon after moving into their seemingly idyllic new home, 
a family learns of a brutal crime committed against former 
residents of the dwelling.

IMDB Rating: 5.7/10 from 11,187 users   Metascore: 35/100
 
http://www.imdb.com/title/tt1462041/

****************************************************************

[url=http://www.imagezon3.com/images/BIo9Z.png][img]http://www.imagezon3.com/images/thumbs/BIo9Z.png[/img][/url]
[url=http://www.imagezon3.com/images/02A7.png][img]http://www.imagezon3.com/images/thumbs/02A7.png[/img][/url]
[url=http://www.imagezon3.com/images/y3qMU.png][img]http://www.imagezon3.com/images/thumbs/y3qMU.png[/img][/url]
[url=http://www.imagezon3.com/images/KFgd6.png][img]http://www.imagezon3.com/images/thumbs/KFgd6.png[/img][/url]
[url=http://www.imagezon3.com/images/UDi5b.png][img]http://www.imagezon3.com/images/thumbs/UDi5b.png[/img][/url]

****************************************************************

General
Complete name                    : Dream House 2011 720p BDRip x264 ac3 (mp4) [GREYSHADOW].mp4
Format                           : MPEG-4
Format profile                   : Base Media
Codec ID                         : isom
File size                        : 3.63 GiB
Duration                         : 1h 31mn
Overall bit rate                 : 5642 Kbps
Encoded date                     : UTC 2012-02-21 17:59:20
Tagged date                      : UTC 2012-02-21 17:59:20

Video
ID                               : 1
Format                           : AVC
Format/Info                      : Advanced Video Codec
Format profile                   : High@L4.1
Format settings, CABAC           : Yes
Format settings, ReFrames        : 12 frames
Codec ID                         : avc1
Codec ID/Info                    : Advanced Video Coding
Duration                         : 1h 31mn
Bit rate                         : 5000 Kbps
Maximum bit rate                 : 19.4 Mbps
Width                            : 1280 pixels
Height                           : 528 pixels
Display aspect ratio             : 2.40:1
Frame rate mode                  : Constant
Frame rate                       : 23.976 fps
Color space                      : YUV
Chroma subsampling               : 4:2:0
Bit depth                        : 8 bits
Scan type                        : Progressive
Bits/(Pixel*Frame)               : 0.309
Stream size                      : 3.21 GiB (89%)
Title                            : AVC MPEG4 Video
Writing library                  : x264 core 120 r2164 da19765
Encoded date                     : UTC 2012-02-21 05:31:39
Tagged date                      : UTC 2012-02-21 17:59:48
Color primaries                  : BT.709-5, BT.1361, IEC 61966-2-4, SMPTE RP177
Transfer characteristics         : BT.709-5, BT.1361
Matrix coefficients              : BT.709-5, BT.1361, IEC 61966-2-4 709, SMPTE RP177

Audio
ID                               : 2
Format                           : AC-3
Format/Info                      : Audio Coding 3
Mode extension                   : CM (complete main)
Codec ID                         : ac-3
Duration                         : 1h 31mn
Bit rate mode                    : Constant
Bit rate                         : 640 Kbps
Channel(s)                       : 6 channels
Channel positions                : Front: L C R, Side: L R, LFE
Sampling rate                    : 48.0 KHz
Bit depth                        : 16 bits
Compression mode                 : Lossy
Stream size                      : 421 MiB (11%)
Title                            : AC3 5.1 640 kbps
Language                         : English
Encoded date                     : UTC 2012-02-21 17:59:43
Tagged date                      : UTC 2012-02-21 17:59:48

****************************************************************

Video Source: Dream.House.2011.BluRay.1080p.VC-1.DTS-HD.MA5.1-CHDBits (26.9GB)

Thanks: chdbits.org

****************************************************************

I provide a small sample, so please download this to check your 
compatibility first if you are unsure.

****************************************************************

I have provided tutorials here :- 
http://tutorials4all.freeforums.org/index.php?sid=fb109f91dedb2901c4d0b39625c431f7
This is for opening my mkv encodes, remuxing to Bluray for PS3 or mkv or mp4 with 
additional or selected audio or subtitles which I will now start supplying, so if your
fed up finding the right encode to match your player - DO IT YOURSELF - it's simples.

I allow transfer of my encodes to any site, just give me credit (Thanks: GREYSHADOW)

****************************************************************